<mxfile host="app.diagrams.net" modified="2024-01-18T16:28:27.672Z" agent="Mozilla/5.0 (Windows NT 10.0; Win64; x64) AppleWebKit/537.36 (KHTML, like Gecko) Chrome/120.0.0.0 Safari/537.36" etag="G2EDIgmy63kNZ2i6FvDo" version="22.1.21" type="github">
  <diagram id="C5RBs43oDa-KdzZeNtuy" name="Page-1">
    <mxGraphModel dx="858" dy="1338" grid="1" gridSize="10" guides="1" tooltips="1" connect="1" arrows="1" fold="1" page="1" pageScale="1" pageWidth="827" pageHeight="1169" math="0" shadow="0">
      <root>
        <mxCell id="WIyWlLk6GJQsqaUBKTNV-0" />
        <mxCell id="WIyWlLk6GJQsqaUBKTNV-1" parent="WIyWlLk6GJQsqaUBKTNV-0" />
        <mxCell id="UEXDxYKTqI-qEBPEXhdA-4" style="edgeStyle=orthogonalEdgeStyle;rounded=0;orthogonalLoop=1;jettySize=auto;html=1;exitX=0.5;exitY=1;exitDx=0;exitDy=0;entryX=0.5;entryY=0;entryDx=0;entryDy=0;" edge="1" parent="WIyWlLk6GJQsqaUBKTNV-1" source="WIyWlLk6GJQsqaUBKTNV-3" target="UEXDxYKTqI-qEBPEXhdA-0">
          <mxGeometry relative="1" as="geometry" />
        </mxCell>
        <mxCell id="WIyWlLk6GJQsqaUBKTNV-3" value="Start" style="rounded=1;whiteSpace=wrap;html=1;fontSize=12;glass=0;strokeWidth=1;shadow=0;" parent="WIyWlLk6GJQsqaUBKTNV-1" vertex="1">
          <mxGeometry x="20" y="90" width="120" height="40" as="geometry" />
        </mxCell>
        <mxCell id="UEXDxYKTqI-qEBPEXhdA-0" value="Akses Aplikasi" style="rounded=0;whiteSpace=wrap;html=1;" vertex="1" parent="WIyWlLk6GJQsqaUBKTNV-1">
          <mxGeometry x="175" y="90" width="120" height="60" as="geometry" />
        </mxCell>
        <mxCell id="UEXDxYKTqI-qEBPEXhdA-7" style="edgeStyle=orthogonalEdgeStyle;rounded=0;orthogonalLoop=1;jettySize=auto;html=1;" edge="1" parent="WIyWlLk6GJQsqaUBKTNV-1" source="UEXDxYKTqI-qEBPEXhdA-1" target="UEXDxYKTqI-qEBPEXhdA-3">
          <mxGeometry relative="1" as="geometry" />
        </mxCell>
        <mxCell id="UEXDxYKTqI-qEBPEXhdA-1" value="&lt;font color=&quot;#000000&quot; style=&quot;font-size: 10px;&quot;&gt;Masukkan Informasi Data Diri Pengunjung (Email, No Telpon, nama PIC pengunjung, PIC Desnet, Foto KTP, dan lain-lain.&lt;/font&gt;" style="shape=parallelogram;perimeter=parallelogramPerimeter;whiteSpace=wrap;html=1;fixedSize=1;" vertex="1" parent="WIyWlLk6GJQsqaUBKTNV-1">
          <mxGeometry x="100" y="210" width="300" height="60" as="geometry" />
        </mxCell>
        <mxCell id="UEXDxYKTqI-qEBPEXhdA-9" value="Ada Data yang sama" style="edgeStyle=orthogonalEdgeStyle;rounded=0;orthogonalLoop=1;jettySize=auto;html=1;entryX=0.346;entryY=0.012;entryDx=0;entryDy=0;entryPerimeter=0;" edge="1" parent="WIyWlLk6GJQsqaUBKTNV-1" source="UEXDxYKTqI-qEBPEXhdA-3" target="UEXDxYKTqI-qEBPEXhdA-10">
          <mxGeometry relative="1" as="geometry">
            <mxPoint x="235" y="720" as="targetPoint" />
          </mxGeometry>
        </mxCell>
        <mxCell id="UEXDxYKTqI-qEBPEXhdA-12" value="Data Unique" style="edgeStyle=orthogonalEdgeStyle;rounded=0;orthogonalLoop=1;jettySize=auto;html=1;entryX=0;entryY=0.5;entryDx=0;entryDy=0;" edge="1" parent="WIyWlLk6GJQsqaUBKTNV-1" source="UEXDxYKTqI-qEBPEXhdA-3" target="UEXDxYKTqI-qEBPEXhdA-11">
          <mxGeometry relative="1" as="geometry" />
        </mxCell>
        <mxCell id="UEXDxYKTqI-qEBPEXhdA-3" value="&lt;font color=&quot;#000033&quot; style=&quot;font-size: 10px;&quot;&gt;Pemeriksaan Email / Nomor Telpon pengunjung untuk hari yang sama&lt;/font&gt;" style="rhombus;whiteSpace=wrap;html=1;" vertex="1" parent="WIyWlLk6GJQsqaUBKTNV-1">
          <mxGeometry x="145" y="300" width="190" height="190" as="geometry" />
        </mxCell>
        <mxCell id="UEXDxYKTqI-qEBPEXhdA-6" style="edgeStyle=orthogonalEdgeStyle;rounded=0;orthogonalLoop=1;jettySize=auto;html=1;exitX=0.5;exitY=1;exitDx=0;exitDy=0;entryX=0.433;entryY=-0.067;entryDx=0;entryDy=0;entryPerimeter=0;" edge="1" parent="WIyWlLk6GJQsqaUBKTNV-1" source="UEXDxYKTqI-qEBPEXhdA-0" target="UEXDxYKTqI-qEBPEXhdA-1">
          <mxGeometry relative="1" as="geometry" />
        </mxCell>
        <mxCell id="UEXDxYKTqI-qEBPEXhdA-10" value="Pendaftaran Ditolak" style="rounded=1;whiteSpace=wrap;html=1;fontSize=12;glass=0;strokeWidth=1;shadow=0;" vertex="1" parent="WIyWlLk6GJQsqaUBKTNV-1">
          <mxGeometry x="180" y="570" width="120" height="40" as="geometry" />
        </mxCell>
        <mxCell id="UEXDxYKTqI-qEBPEXhdA-15" style="edgeStyle=orthogonalEdgeStyle;rounded=0;orthogonalLoop=1;jettySize=auto;html=1;entryX=0.5;entryY=0;entryDx=0;entryDy=0;" edge="1" parent="WIyWlLk6GJQsqaUBKTNV-1" source="UEXDxYKTqI-qEBPEXhdA-11" target="UEXDxYKTqI-qEBPEXhdA-13">
          <mxGeometry relative="1" as="geometry" />
        </mxCell>
        <mxCell id="UEXDxYKTqI-qEBPEXhdA-11" value="Mengirimkan notifikasi ke Admin untuk verifikasi Kunjungan" style="rounded=0;whiteSpace=wrap;html=1;" vertex="1" parent="WIyWlLk6GJQsqaUBKTNV-1">
          <mxGeometry x="430" y="270" width="120" height="60" as="geometry" />
        </mxCell>
        <mxCell id="UEXDxYKTqI-qEBPEXhdA-17" value="Kunjungan Ditolak" style="edgeStyle=orthogonalEdgeStyle;rounded=0;orthogonalLoop=1;jettySize=auto;html=1;entryX=0.5;entryY=0;entryDx=0;entryDy=0;" edge="1" parent="WIyWlLk6GJQsqaUBKTNV-1" source="UEXDxYKTqI-qEBPEXhdA-13" target="UEXDxYKTqI-qEBPEXhdA-16">
          <mxGeometry relative="1" as="geometry" />
        </mxCell>
        <mxCell id="UEXDxYKTqI-qEBPEXhdA-21" value="Kunjungan&lt;br&gt;Diterima" style="edgeStyle=orthogonalEdgeStyle;rounded=0;orthogonalLoop=1;jettySize=auto;html=1;" edge="1" parent="WIyWlLk6GJQsqaUBKTNV-1" source="UEXDxYKTqI-qEBPEXhdA-13" target="UEXDxYKTqI-qEBPEXhdA-20">
          <mxGeometry relative="1" as="geometry" />
        </mxCell>
        <mxCell id="UEXDxYKTqI-qEBPEXhdA-13" value="Verifikasi Kunjungan oleh Admin" style="rhombus;whiteSpace=wrap;html=1;" vertex="1" parent="WIyWlLk6GJQsqaUBKTNV-1">
          <mxGeometry x="415" y="380" width="150" height="150" as="geometry" />
        </mxCell>
        <mxCell id="UEXDxYKTqI-qEBPEXhdA-19" style="edgeStyle=orthogonalEdgeStyle;rounded=0;orthogonalLoop=1;jettySize=auto;html=1;entryX=0.5;entryY=0;entryDx=0;entryDy=0;" edge="1" parent="WIyWlLk6GJQsqaUBKTNV-1" source="UEXDxYKTqI-qEBPEXhdA-16" target="UEXDxYKTqI-qEBPEXhdA-18">
          <mxGeometry relative="1" as="geometry" />
        </mxCell>
        <mxCell id="UEXDxYKTqI-qEBPEXhdA-16" value="Pengiriman Notifikasi Ditolak ke User" style="rounded=0;whiteSpace=wrap;html=1;fontSize=12;glass=0;strokeWidth=1;shadow=0;" vertex="1" parent="WIyWlLk6GJQsqaUBKTNV-1">
          <mxGeometry x="430" y="600" width="120" height="40" as="geometry" />
        </mxCell>
        <mxCell id="UEXDxYKTqI-qEBPEXhdA-18" value="Pendaftaran Ditolak" style="rounded=1;whiteSpace=wrap;html=1;" vertex="1" parent="WIyWlLk6GJQsqaUBKTNV-1">
          <mxGeometry x="430" y="700" width="120" height="60" as="geometry" />
        </mxCell>
        <mxCell id="UEXDxYKTqI-qEBPEXhdA-23" style="edgeStyle=orthogonalEdgeStyle;rounded=0;orthogonalLoop=1;jettySize=auto;html=1;entryX=0;entryY=0.5;entryDx=0;entryDy=0;" edge="1" parent="WIyWlLk6GJQsqaUBKTNV-1" source="UEXDxYKTqI-qEBPEXhdA-20" target="UEXDxYKTqI-qEBPEXhdA-22">
          <mxGeometry relative="1" as="geometry" />
        </mxCell>
        <mxCell id="UEXDxYKTqI-qEBPEXhdA-20" value="Generate Kode Kunjungan" style="rounded=0;whiteSpace=wrap;html=1;fontSize=12;glass=0;strokeWidth=1;shadow=0;" vertex="1" parent="WIyWlLk6GJQsqaUBKTNV-1">
          <mxGeometry x="710" y="435" width="120" height="40" as="geometry" />
        </mxCell>
        <mxCell id="UEXDxYKTqI-qEBPEXhdA-25" style="edgeStyle=orthogonalEdgeStyle;rounded=0;orthogonalLoop=1;jettySize=auto;html=1;entryX=0;entryY=0.5;entryDx=0;entryDy=0;" edge="1" parent="WIyWlLk6GJQsqaUBKTNV-1" source="UEXDxYKTqI-qEBPEXhdA-22" target="UEXDxYKTqI-qEBPEXhdA-24">
          <mxGeometry relative="1" as="geometry" />
        </mxCell>
        <mxCell id="UEXDxYKTqI-qEBPEXhdA-22" value="Pengirimian Notifikasi Penerimaan Kunjungan Pengunjung" style="rounded=0;whiteSpace=wrap;html=1;" vertex="1" parent="WIyWlLk6GJQsqaUBKTNV-1">
          <mxGeometry x="930" y="425" width="120" height="60" as="geometry" />
        </mxCell>
        <mxCell id="UEXDxYKTqI-qEBPEXhdA-24" value="Pendaftaran&lt;br&gt;Diterima" style="rounded=1;whiteSpace=wrap;html=1;" vertex="1" parent="WIyWlLk6GJQsqaUBKTNV-1">
          <mxGeometry x="1110" y="425" width="120" height="60" as="geometry" />
        </mxCell>
        <mxCell id="UEXDxYKTqI-qEBPEXhdA-30" style="edgeStyle=orthogonalEdgeStyle;rounded=0;orthogonalLoop=1;jettySize=auto;html=1;entryX=0;entryY=0.5;entryDx=0;entryDy=0;" edge="1" parent="WIyWlLk6GJQsqaUBKTNV-1" source="UEXDxYKTqI-qEBPEXhdA-26" target="UEXDxYKTqI-qEBPEXhdA-27">
          <mxGeometry relative="1" as="geometry" />
        </mxCell>
        <mxCell id="UEXDxYKTqI-qEBPEXhdA-26" value="Start" style="rounded=1;whiteSpace=wrap;html=1;fontSize=12;glass=0;strokeWidth=1;shadow=0;" vertex="1" parent="WIyWlLk6GJQsqaUBKTNV-1">
          <mxGeometry x="50" y="990" width="120" height="40" as="geometry" />
        </mxCell>
        <mxCell id="UEXDxYKTqI-qEBPEXhdA-29" style="edgeStyle=orthogonalEdgeStyle;rounded=0;orthogonalLoop=1;jettySize=auto;html=1;entryX=0.5;entryY=0;entryDx=0;entryDy=0;" edge="1" parent="WIyWlLk6GJQsqaUBKTNV-1" source="UEXDxYKTqI-qEBPEXhdA-27" target="UEXDxYKTqI-qEBPEXhdA-28">
          <mxGeometry relative="1" as="geometry" />
        </mxCell>
        <mxCell id="UEXDxYKTqI-qEBPEXhdA-27" value="Akses Aplikasi Melalui Tab Pencarian" style="rounded=0;whiteSpace=wrap;html=1;" vertex="1" parent="WIyWlLk6GJQsqaUBKTNV-1">
          <mxGeometry x="250" y="980" width="120" height="60" as="geometry" />
        </mxCell>
        <mxCell id="UEXDxYKTqI-qEBPEXhdA-32" style="edgeStyle=orthogonalEdgeStyle;rounded=0;orthogonalLoop=1;jettySize=auto;html=1;entryX=0.5;entryY=0;entryDx=0;entryDy=0;" edge="1" parent="WIyWlLk6GJQsqaUBKTNV-1" source="UEXDxYKTqI-qEBPEXhdA-28" target="UEXDxYKTqI-qEBPEXhdA-31">
          <mxGeometry relative="1" as="geometry" />
        </mxCell>
        <mxCell id="UEXDxYKTqI-qEBPEXhdA-28" value="Memasukkan Kode Kunjungan" style="shape=parallelogram;perimeter=parallelogramPerimeter;whiteSpace=wrap;html=1;fixedSize=1;" vertex="1" parent="WIyWlLk6GJQsqaUBKTNV-1">
          <mxGeometry x="250" y="1109" width="120" height="60" as="geometry" />
        </mxCell>
        <mxCell id="UEXDxYKTqI-qEBPEXhdA-34" value="Kode Tidak Ditemukan" style="edgeStyle=orthogonalEdgeStyle;rounded=0;orthogonalLoop=1;jettySize=auto;html=1;entryX=0.5;entryY=0;entryDx=0;entryDy=0;" edge="1" parent="WIyWlLk6GJQsqaUBKTNV-1" source="UEXDxYKTqI-qEBPEXhdA-31" target="UEXDxYKTqI-qEBPEXhdA-33">
          <mxGeometry relative="1" as="geometry" />
        </mxCell>
        <mxCell id="UEXDxYKTqI-qEBPEXhdA-38" style="edgeStyle=orthogonalEdgeStyle;rounded=0;orthogonalLoop=1;jettySize=auto;html=1;entryX=0;entryY=0.5;entryDx=0;entryDy=0;" edge="1" parent="WIyWlLk6GJQsqaUBKTNV-1" source="UEXDxYKTqI-qEBPEXhdA-31" target="UEXDxYKTqI-qEBPEXhdA-37">
          <mxGeometry relative="1" as="geometry" />
        </mxCell>
        <mxCell id="UEXDxYKTqI-qEBPEXhdA-39" value="Kode&amp;nbsp;&lt;br&gt;Ditemukan" style="edgeStyle=orthogonalEdgeStyle;rounded=0;orthogonalLoop=1;jettySize=auto;html=1;" edge="1" parent="WIyWlLk6GJQsqaUBKTNV-1" source="UEXDxYKTqI-qEBPEXhdA-31" target="UEXDxYKTqI-qEBPEXhdA-37">
          <mxGeometry relative="1" as="geometry" />
        </mxCell>
        <mxCell id="UEXDxYKTqI-qEBPEXhdA-31" value="Verifikasi&lt;br&gt;Kode Kunjungan" style="rhombus;whiteSpace=wrap;html=1;" vertex="1" parent="WIyWlLk6GJQsqaUBKTNV-1">
          <mxGeometry x="260" y="1230" width="110" height="110" as="geometry" />
        </mxCell>
        <mxCell id="UEXDxYKTqI-qEBPEXhdA-36" style="edgeStyle=orthogonalEdgeStyle;rounded=0;orthogonalLoop=1;jettySize=auto;html=1;entryX=0.5;entryY=0;entryDx=0;entryDy=0;" edge="1" parent="WIyWlLk6GJQsqaUBKTNV-1" source="UEXDxYKTqI-qEBPEXhdA-33" target="UEXDxYKTqI-qEBPEXhdA-35">
          <mxGeometry relative="1" as="geometry" />
        </mxCell>
        <mxCell id="UEXDxYKTqI-qEBPEXhdA-33" value="Menampilkan Error" style="rounded=0;whiteSpace=wrap;html=1;" vertex="1" parent="WIyWlLk6GJQsqaUBKTNV-1">
          <mxGeometry x="260" y="1430" width="120" height="60" as="geometry" />
        </mxCell>
        <mxCell id="UEXDxYKTqI-qEBPEXhdA-35" value="Selesai" style="rounded=1;whiteSpace=wrap;html=1;" vertex="1" parent="WIyWlLk6GJQsqaUBKTNV-1">
          <mxGeometry x="260" y="1530" width="120" height="60" as="geometry" />
        </mxCell>
        <mxCell id="UEXDxYKTqI-qEBPEXhdA-45" style="edgeStyle=orthogonalEdgeStyle;rounded=0;orthogonalLoop=1;jettySize=auto;html=1;entryX=0;entryY=0.5;entryDx=0;entryDy=0;" edge="1" parent="WIyWlLk6GJQsqaUBKTNV-1" source="UEXDxYKTqI-qEBPEXhdA-37" target="UEXDxYKTqI-qEBPEXhdA-41">
          <mxGeometry relative="1" as="geometry" />
        </mxCell>
        <mxCell id="UEXDxYKTqI-qEBPEXhdA-37" value="Menampilkan Detail Data Kunjungan" style="rounded=0;whiteSpace=wrap;html=1;" vertex="1" parent="WIyWlLk6GJQsqaUBKTNV-1">
          <mxGeometry x="490" y="1255" width="120" height="60" as="geometry" />
        </mxCell>
        <mxCell id="UEXDxYKTqI-qEBPEXhdA-44" style="edgeStyle=orthogonalEdgeStyle;rounded=0;orthogonalLoop=1;jettySize=auto;html=1;" edge="1" parent="WIyWlLk6GJQsqaUBKTNV-1" source="UEXDxYKTqI-qEBPEXhdA-41" target="UEXDxYKTqI-qEBPEXhdA-43">
          <mxGeometry relative="1" as="geometry" />
        </mxCell>
        <mxCell id="UEXDxYKTqI-qEBPEXhdA-41" value="Memasukkan Dokumentasi, &lt;br&gt;Rating serta Catatan Kunjungan" style="shape=parallelogram;perimeter=parallelogramPerimeter;whiteSpace=wrap;html=1;fixedSize=1;" vertex="1" parent="WIyWlLk6GJQsqaUBKTNV-1">
          <mxGeometry x="670" y="1255" width="200" height="60" as="geometry" />
        </mxCell>
        <mxCell id="UEXDxYKTqI-qEBPEXhdA-43" value="Selesai" style="rounded=1;whiteSpace=wrap;html=1;" vertex="1" parent="WIyWlLk6GJQsqaUBKTNV-1">
          <mxGeometry x="940" y="1255" width="120" height="60" as="geometry" />
        </mxCell>
      </root>
    </mxGraphModel>
  </diagram>
</mxfile>
